<?xml version="1.0" encoding="utf-8"?>
<!-- Generator: Adobe Illustrator 27.1.1, SVG Export Plug-In . SVG Version: 6.00 Build 0)  -->
<svg version="1.1" id="Слой_1" xmlns="http://www.w3.org/2000/svg" xmlns:xlink="http://www.w3.org/1999/xlink" x="0px" y="0px"
	 viewBox="0 0 800 310.4" style="enable-background:new 0 0 800 310.4;" xml:space="preserve">
<style type="text/css">
	.st0{fill:#231F20;}
</style>
<g id="Layer_2">
	<path class="st0" d="M217.2,273v-96.9h16.7v10.2c2.4-6.8,10.8-11.7,22.4-11.7c9.9,0,18.2,3.5,24.9,10.6c6.8,7,10.2,15.6,10.2,26
		s-3.3,19-10.2,26.2c-6.7,7-15,10.4-24.9,10.4c-11.5,0-20-4.9-22.4-11.7v37L217.2,273L217.2,273z M268.7,226.5c4.1-4.1,6-9.2,6-15.3
		s-2-11.3-6-15.3c-3.9-4-8.8-6.1-14.7-6.1s-11.1,2.1-15.3,6.1c-4.1,4.1-6.1,9.2-6.1,15.3s2.1,11.3,6.1,15.3
		c4.2,4.1,9.3,6.1,15.3,6.1S264.9,230.5,268.7,226.5z"/>
	<path class="st0" d="M361.4,186.3v-10.2h16.7v70.1h-16.7V236c-2.4,6.8-10.8,11.7-22.4,11.7c-9.9,0-18.2-3.5-25-10.4
		c-6.7-7.1-10-15.7-10-26.2s3.3-19,10-26c6.8-7.1,15.1-10.6,25-10.6C350.5,174.5,359,179.4,361.4,186.3L361.4,186.3z M356.4,226.5
		c4.2-4.1,6.3-9.2,6.3-15.3s-2.1-11.3-6.3-15.3c-4.1-4-9.2-6.1-15.1-6.1c-6,0-10.8,2.1-14.9,6.1c-3.9,4.1-5.9,9.2-5.9,15.3
		s2,11.3,5.9,15.3c4,4.1,8.9,6.1,14.9,6.1C347.2,232.6,352.4,230.5,356.4,226.5z"/>
	<path class="st0" d="M459.8,186l-10.3,10.7c-4.9-5.2-10.8-7.7-17.8-7.7c-6.1,0-11.3,2.1-15.4,6.3c-4,4.2-6.1,9.5-6.1,15.7
		s2.1,11.5,6.1,15.7c4.2,4.2,9.3,6.3,15.4,6.3c7,0,12.9-2.5,17.8-7.7l10.3,10.7c-7.5,8.1-16.8,12.1-28.1,12.1
		c-11.3,0-19.7-3.5-27.1-10.6c-7.4-7.1-11-16-11-26.6c0-10.6,3.6-19.3,11-26.4c7.4-7.1,16.4-10.7,27.1-10.7
		C443,173.9,452.3,177.9,459.8,186L459.8,186z"/>
	<path d="M468.3,246.2v-11.3l43-45.1c4-4.3,6-8.6,6-13.2c0-7.8-6.5-13.9-14.3-13.9c-4.1,0-7.5,1.5-10.4,4.5
		c-2.9,2.9-4.3,6.5-4.3,10.8h-15.8c0-8.5,2.9-15.6,8.9-21.6c6-6,13.3-9,21.8-9c8.5,0,15.3,2.9,21.1,8.6c6,5.7,8.9,12.5,8.9,20.6
		c0,8.1-3.8,16.4-11.4,24.3l-28.1,29.5H535v15.7L468.3,246.2L468.3,246.2z"/>
	<path class="st0" d="M551,273v-96.9h16.7v10.2c2.4-6.8,10.8-11.7,22.4-11.7c9.9,0,18.2,3.5,24.9,10.6c6.8,7,10.2,15.6,10.2,26
		s-3.3,19-10.2,26.2c-6.7,7-15,10.4-24.9,10.4c-11.5,0-20-4.9-22.4-11.7v37L551,273L551,273z M602.5,226.5c4.1-4.1,6-9.2,6-15.3
		s-2-11.3-6-15.3c-3.9-4-8.8-6.1-14.7-6.1c-6,0-11.1,2.1-15.3,6.1c-4.1,4.1-6.1,9.2-6.1,15.3s2.1,11.3,6.1,15.3
		c4.2,4.1,9.3,6.1,15.3,6.1C593.8,232.6,598.6,230.5,602.5,226.5z"/>
	<path class="st0" d="M695.2,186.3v-10.2h16.7v70.1h-16.7V236c-2.4,6.8-10.8,11.7-22.4,11.7c-9.9,0-18.2-3.5-25-10.4
		c-6.7-7.1-10-15.7-10-26.2s3.3-19,10-26c6.8-7.1,15.1-10.6,25-10.6C684.3,174.5,692.8,179.4,695.2,186.3L695.2,186.3z M690.2,226.5
		c4.2-4.1,6.3-9.2,6.3-15.3s-2.1-11.3-6.3-15.3c-4.1-4-9.2-6.1-15.1-6.1s-10.8,2.1-14.9,6.1c-3.9,4.1-5.9,9.2-5.9,15.3
		s2,11.3,5.9,15.3c4,4.1,8.9,6.1,14.9,6.1S686.2,230.5,690.2,226.5z"/>
	<path class="st0" d="M730.5,246.2v-96.9H747v56.6l25.9-29.8h19.2l-27.4,31.3l30.3,38.8h-18.9L754,217.9l-7,7.8v20.4L730.5,246.2
		L730.5,246.2z"/>
	<g id="logo-2">
		<polygon points="12.5,218.5 152.2,299.1 152.2,252.4 53,195.1 52.6,194.9 12.2,218.2 		"/>
		<polygon points="152.2,299.1 152.2,252.4 152,252.3 142.8,247 		"/>
		<polyline points="12.2,56.5 12.2,218.2 52.6,194.9 52.6,79.9 111.8,45.6 93.7,55.1 93.7,8.4 93.3,8.7 		"/>
		<polygon points="233.7,89.3 233.7,136 193.3,159.4 192.6,160.7 192.6,275.3 152.2,299.1 152.2,137.4 193.3,112.7 		"/>
		<polygon points="233.7,89.3 233.7,89.7 193.3,113.1 193.3,112.7 93.7,56.1 93.7,8.4 		"/>
		<polygon points="233.7,89.3 193.3,112.7 184,107.2 		"/>
	</g>
</g>
</svg>
