<svg version="1.1" id="Слой_1" xmlns="http://www.w3.org/2000/svg" x="0" y="0" viewBox="0 0 800 310.4" style="enable-background:new 0 0 800 310.4" xml:space="preserve"><style>.st0{fill:#231f20}</style><g id="Layer_2"><path class="st0" d="M217.2 273v-96.9h16.7v10.2c2.4-6.8 10.8-11.7 22.4-11.7 9.9 0 18.2 3.5 24.9 10.6 6.8 7 10.2 15.6 10.2 26s-3.3 19-10.2 26.2c-6.7 7-15 10.4-24.9 10.4-11.5 0-20-4.9-22.4-11.7v37l-16.7-.1zm51.5-46.5c4.1-4.1 6-9.2 6-15.3s-2-11.3-6-15.3c-3.9-4-8.8-6.1-14.7-6.1s-11.1 2.1-15.3 6.1c-4.1 4.1-6.1 9.2-6.1 15.3s2.1 11.3 6.1 15.3c4.2 4.1 9.3 6.1 15.3 6.1s10.9-2.1 14.7-6.1zm92.7-40.2v-10.2h16.7v70.1h-16.7V236c-2.4 6.8-10.8 11.7-22.4 11.7-9.9 0-18.2-3.5-25-10.4-6.7-7.1-10-15.7-10-26.2s3.3-19 10-26c6.8-7.1 15.1-10.6 25-10.6 11.5 0 20 4.9 22.4 11.8zm-5 40.2c4.2-4.1 6.3-9.2 6.3-15.3s-2.1-11.3-6.3-15.3c-4.1-4-9.2-6.1-15.1-6.1-6 0-10.8 2.1-14.9 6.1-3.9 4.1-5.9 9.2-5.9 15.3s2 11.3 5.9 15.3c4 4.1 8.9 6.1 14.9 6.1 5.9 0 11.1-2.1 15.1-6.1zM459.8 186l-10.3 10.7c-4.9-5.2-10.8-7.7-17.8-7.7-6.1 0-11.3 2.1-15.4 6.3-4 4.2-6.1 9.5-6.1 15.7s2.1 11.5 6.1 15.7c4.2 4.2 9.3 6.3 15.4 6.3 7 0 12.9-2.5 17.8-7.7l10.3 10.7c-7.5 8.1-16.8 12.1-28.1 12.1s-19.7-3.5-27.1-10.6c-7.4-7.1-11-16-11-26.6 0-10.6 3.6-19.3 11-26.4 7.4-7.1 16.4-10.7 27.1-10.7 11.3.1 20.6 4.1 28.1 12.2z"/><path d="M468.3 246.2v-11.3l43-45.1c4-4.3 6-8.6 6-13.2 0-7.8-6.5-13.9-14.3-13.9-4.1 0-7.5 1.5-10.4 4.5-2.9 2.9-4.3 6.5-4.3 10.8h-15.8c0-8.5 2.9-15.6 8.9-21.6 6-6 13.3-9 21.8-9s15.3 2.9 21.1 8.6c6 5.7 8.9 12.5 8.9 20.6 0 8.1-3.8 16.4-11.4 24.3l-28.1 29.5H535v15.7l-66.7.1z"/><path class="st0" d="M551 273v-96.9h16.7v10.2c2.4-6.8 10.8-11.7 22.4-11.7 9.9 0 18.2 3.5 24.9 10.6 6.8 7 10.2 15.6 10.2 26s-3.3 19-10.2 26.2c-6.7 7-15 10.4-24.9 10.4-11.5 0-20-4.9-22.4-11.7v37L551 273zm51.5-46.5c4.1-4.1 6-9.2 6-15.3s-2-11.3-6-15.3c-3.9-4-8.8-6.1-14.7-6.1-6 0-11.1 2.1-15.3 6.1-4.1 4.1-6.1 9.2-6.1 15.3s2.1 11.3 6.1 15.3c4.2 4.1 9.3 6.1 15.3 6.1s10.8-2.1 14.7-6.1zm92.7-40.2v-10.2h16.7v70.1h-16.7V236c-2.4 6.8-10.8 11.7-22.4 11.7-9.9 0-18.2-3.5-25-10.4-6.7-7.1-10-15.7-10-26.2s3.3-19 10-26c6.8-7.1 15.1-10.6 25-10.6 11.5 0 20 4.9 22.4 11.8zm-5 40.2c4.2-4.1 6.3-9.2 6.3-15.3s-2.1-11.3-6.3-15.3c-4.1-4-9.2-6.1-15.1-6.1s-10.8 2.1-14.9 6.1c-3.9 4.1-5.9 9.2-5.9 15.3s2 11.3 5.9 15.3c4 4.1 8.9 6.1 14.9 6.1s11.1-2.1 15.1-6.1zm40.3 19.7v-96.9H747v56.6l25.9-29.8h19.2l-27.4 31.3 30.3 38.8h-18.9L754 217.9l-7 7.8v20.4l-16.5.1z"/><g id="logo-2"><path d="m12.5 218.5 139.7 80.6v-46.7L53 195.1l-.4-.2-40.4 23.3z"/><path d="M152.2 299.1v-46.7l-.2-.1-9.2-5.3zM12.2 56.5v161.7l40.4-23.3v-115l59.2-34.3-18.1 9.5V8.4l-.4.3m140.4 80.6V136l-40.4 23.4-.7 1.3v114.6l-40.4 23.8V137.4l41.1-24.7z"/><path d="M233.7 89.3v.4l-40.4 23.4v-.4L93.7 56.1V8.4z"/><path d="m233.7 89.3-40.4 23.4-9.3-5.5z"/></g></g></svg>